<svg width="186" height="186" viewBox="0 0 186 186" fill="none" xmlns="http://www.w3.org/2000/svg">
<path d="M93.3856 108.302C90.8761 110.758 92.34 115.465 93.3856 117.512C103.726 127.972 124.684 149.028 125.8 149.574C127.194 150.256 133.468 155.714 137.999 151.28C141.623 147.732 139.509 142.752 137.999 140.706C128.123 130.928 107.815 110.758 105.584 108.302C102.796 105.233 96.5225 105.233 93.3856 108.302Z" fill="url(#paint0_linear_1_14)"/>
<path d="M47.3252 117.385C44.2675 114.338 47.2094 109.652 49.0626 107.689C72.1112 84.6057 118.834 37.8844 121.336 35.6683C124.463 32.8983 130.022 31.8595 133.15 34.6296C135.651 36.8456 135.582 42.2599 133.15 44.671C111.143 66.485 66.7834 110.39 65.3935 111.498C64.0037 112.606 64.8144 114.268 65.3935 114.961C73.5011 122.925 89.9942 139.129 91.1061 140.237C92.496 141.622 96.2549 147.855 92.1485 151.318C88.5348 154.365 83.4618 152.587 81.377 151.318L47.3252 117.385Z" fill="#111111"/>
<path d="M75.0722 36.0794L51.8879 58.7367L48.4276 62.2225C46.0053 64.6625 43.9291 71.9826 49.8117 74.4226C54.5178 76.3746 59.3853 72.9121 61.2308 70.9369C69.8816 62.3387 87.3217 44.8635 87.8754 43.7481C88.5675 42.3538 90.9897 37.1251 85.4532 33.988C81.0239 31.4782 76.687 34.3365 75.0722 36.0794Z" fill="url(#paint1_linear_1_14)"/>
<defs>
<linearGradient id="paint0_linear_1_14" x1="116" y1="106" x2="116" y2="153" gradientUnits="userSpaceOnUse">
<stop stop-color="#222222"/>
<stop offset="1" stop-color="#111111"/>
</linearGradient>
<linearGradient id="paint1_linear_1_14" x1="62.7978" y1="-13.6643" x2="72.3401" y2="121.655" gradientUnits="userSpaceOnUse">
<stop stop-color="#222222"/>
<stop offset="1" stop-color="#111111"/>
</linearGradient>
</defs>
</svg>
